<?xml version="1.0" encoding="UTF-8"?>
<svg version="1.1" xmlns="http://www.w3.org/2000/svg" width="512" height="512">
<path d="M0 0 C1.45108658 0.00273422 1.45108658 0.00273422 2.93148804 0.00552368 C17.26440977 0.05095174 31.21023917 0.55983928 45.3125 3.3125 C46.65803955 3.55395752 46.65803955 3.55395752 48.03076172 3.80029297 C107.84088904 14.62287989 165.35495829 48.68064457 202.3125 97.3125 C202.72918945 97.85277832 203.14587891 98.39305664 203.57519531 98.94970703 C211.2584873 108.9447116 218.00092968 119.40459036 224.3125 130.3125 C224.70679199 130.98974121 225.10108398 131.66698242 225.50732422 132.36474609 C238.68961173 155.2833756 247.29510918 180.85822563 252.625 206.6875 C252.77243652 207.39817627 252.91987305 208.10885254 253.07177734 208.84106445 C256.05713787 224.48358366 256.6873098 240.11919606 256.625 256 C256.62226578 257.45108658 256.62226578 257.45108658 256.61947632 258.93148804 C256.57404826 273.26440977 256.06516072 287.21023917 253.3125 301.3125 C253.15152832 302.20952637 252.99055664 303.10655273 252.82470703 304.03076172 C242.00212011 363.84088904 207.94435543 421.35495829 159.3125 458.3125 C158.77222168 458.72918945 158.23194336 459.14587891 157.67529297 459.57519531 C147.6802884 467.2584873 137.22040964 474.00092968 126.3125 480.3125 C125.63525879 480.70679199 124.95801758 481.10108398 124.26025391 481.50732422 C101.3416244 494.68961173 75.76677437 503.29510918 49.9375 508.625 C49.22682373 508.77243652 48.51614746 508.91987305 47.78393555 509.07177734 C32.14141634 512.05713787 16.50580394 512.6873098 0.625 512.625 C-0.34239105 512.62317719 -1.3097821 512.62135437 -2.30648804 512.61947632 C-16.63940977 512.57404826 -30.58523917 512.06516072 -44.6875 509.3125 C-45.58452637 509.15152832 -46.48155273 508.99055664 -47.40576172 508.82470703 C-107.21588904 498.00212011 -164.72995829 463.94435543 -201.6875 415.3125 C-202.10418945 414.77222168 -202.52087891 414.23194336 -202.95019531 413.67529297 C-210.6334873 403.6802884 -217.37592968 393.22040964 -223.6875 382.3125 C-224.08179199 381.63525879 -224.47608398 380.95801758 -224.88232422 380.26025391 C-238.06461173 357.3416244 -246.67010918 331.76677437 -252 305.9375 C-252.14743652 305.22682373 -252.29487305 304.51614746 -252.44677734 303.78393555 C-255.43213787 288.14141634 -256.0623098 272.50580394 -256 256.625 C-255.99817719 255.65760895 -255.99635437 254.6902179 -255.99447632 253.69351196 C-255.94904826 239.36059023 -255.44016072 225.41476083 -252.6875 211.3125 C-252.44604248 209.96696045 -252.44604248 209.96696045 -252.19970703 208.59423828 C-241.37712011 148.78411096 -207.31935543 91.27004171 -158.6875 54.3125 C-158.14722168 53.89581055 -157.60694336 53.47912109 -157.05029297 53.04980469 C-147.0552884 45.3665127 -136.59540964 38.62407032 -125.6875 32.3125 C-125.01025879 31.91820801 -124.33301758 31.52391602 -123.63525391 31.11767578 C-100.7166244 17.93538827 -75.14177437 9.32989082 -49.3125 4 C-48.60182373 3.85256348 -47.89114746 3.70512695 -47.15893555 3.55322266 C-31.51641634 0.56786213 -15.88080394 -0.0623098 0 0 Z " fill="#FEEBB2" transform="translate(255.6875,-0.3125)"/>
<path d="M0 0 C1.43681924 0.004369 1.43681924 0.004369 2.90266514 0.00882626 C3.90970997 0.00797024 4.9167548 0.00711422 5.95431614 0.00623226 C9.36712461 0.0045663 12.77988489 0.01011808 16.19268894 0.01555538 C18.66585094 0.01586146 21.13901303 0.01572867 23.61217499 0.01519012 C29.58497637 0.01498655 35.55775886 0.01928674 41.53055551 0.02569145 C48.43539068 0.03287481 55.34021829 0.03368529 62.24505711 0.03447628 C80.48598559 0.0397325 98.72691073 0.05369353 116.96783543 0.06658077 C157.70221043 0.08720577 198.43658543 0.10783077 240.40533543 0.12908077 C240.40533543 107.37908077 240.40533543 214.62908077 240.40533543 325.12908077 C158.56533543 325.12908077 76.72533543 325.12908077 -7.59466457 325.12908077 C-7.63499592 243.8614124 -7.63499592 243.8614124 -7.6434927 210.0060339 C-7.64545072 202.25611526 -7.64747124 194.50619664 -7.64959621 186.75627804 C-7.64985996 185.78488685 -7.65012371 184.81349567 -7.65039545 183.81266838 C-7.65475051 168.10887078 -7.66263749 152.40507682 -7.67181737 136.70128138 C-7.68115291 120.59747006 -7.68671997 104.49366065 -7.68875307 88.38984674 C-7.6901285 78.44458481 -7.6944802 68.49933317 -7.70258104 58.5540744 C-7.70784728 51.74390504 -7.70946915 44.93374104 -7.70816595 38.12356979 C-7.70752238 34.18834603 -7.70854224 30.25314032 -7.71387005 26.31791973 C-7.71870423 22.72125245 -7.7190031 19.1246155 -7.71556347 15.52794688 C-7.71493486 13.59804652 -7.71927643 11.66814656 -7.72374588 9.73825127 C-7.72175483 8.60764005 -7.71976379 7.47702884 -7.7177124 6.31215668 C-7.71809212 5.3283013 -7.71847184 4.34444593 -7.71886307 3.33077675 C-7.45237236 -1.39336677 -3.92238034 0.00905216 0 0 Z " fill="#363735" transform="translate(139.59466457366943,93.8709192276001)"/>
<path d="M0 0 C4.35985969 3.73702259 8.43597809 7.31241968 12.45991516 11.34638977 C12.96267839 11.84900414 13.46544162 12.35161851 13.9834401 12.86946362 C15.6454004 14.53211113 17.30377149 16.19829061 18.9621582 17.86450195 C20.16167736 19.06594276 21.36142624 20.26715427 22.56138611 21.46815491 C25.13332574 24.04324265 27.70370678 26.61987235 30.27288246 29.19771767 C34.33323026 33.2716294 38.39742695 37.34168681 42.46220398 41.41117859 C51.08193932 50.04198976 59.69742534 58.67703703 68.3125 67.3125 C77.63105658 76.65307764 86.9503426 85.99292062 96.27449483 95.32791299 C100.31797597 99.37638495 104.35900462 103.42728454 108.39819205 107.48004019 C110.90419127 109.99347602 113.41224013 112.50485874 115.9208622 115.0156765 C117.08679095 116.18348371 118.25185178 117.35215817 119.41599655 118.52174377 C121.00005029 120.11296999 122.58712096 121.7011239 124.17500305 123.28852844 C125.06373769 124.17948369 125.95247232 125.07043894 126.86813831 125.98839283 C128.83411328 128.03729536 128.83411328 128.03729536 131 129 C132.41779751 135.01218875 132.17107184 141.5483393 132.203125 147.6953125 C132.21013931 148.59726852 132.21715363 149.49922455 132.22438049 150.42851257 C132.24180732 153.32739297 132.24823387 156.22606913 132.25 159.125 C132.25067474 160.11486908 132.25134949 161.10473816 132.25204468 162.12460327 C132.23630838 176.6344987 131.7869755 190.72193979 129 205 C128.83902832 205.89702637 128.67805664 206.79405273 128.51220703 207.71826172 C117.68962011 267.52838904 83.63185543 325.04245829 35 362 C34.45972168 362.41668945 33.91944336 362.83337891 33.36279297 363.26269531 C23.3677884 370.9459873 12.90790964 377.68842968 2 384 C1.32275879 384.39429199 0.64551758 384.78858398 -0.05224609 385.19482422 C-22.9708756 398.37711173 -48.54572563 406.98260918 -74.375 412.3125 C-75.08567627 412.45993652 -75.79635254 412.60737305 -76.52856445 412.75927734 C-91.50150594 415.61684957 -106.40245143 416.30529922 -121.60742188 416.20581055 C-124.52482734 416.18734284 -127.44191659 416.18530327 -130.359375 416.18554688 C-132.2500027 416.18063649 -134.1406283 416.17481028 -136.03125 416.16796875 C-137.31279968 416.16629951 -137.31279968 416.16629951 -138.62023926 416.16459656 C-140.21936283 416.15218605 -141.81850081 416.12224792 -143.41682625 416.07022858 C-145.05438694 416.02570832 -146.69377437 416.01909793 -148.33131981 416.06417561 C-156.38592596 415.91176714 -160.08908369 412.15249476 -165.48876953 406.54882812 C-166.37780472 405.66271347 -167.2668399 404.77659882 -168.18281555 403.8636322 C-170.60206452 401.4434161 -172.99965268 399.00504489 -175.38948679 396.55599022 C-177.89726065 393.9954613 -180.43034995 391.46021936 -182.96066284 388.92199707 C-187.19992031 384.66256004 -191.42262053 380.38730056 -195.63378906 376.10009766 C-201.5808488 370.04569066 -207.55633126 364.01997022 -213.53817964 357.99995899 C-221.97913421 349.5021419 -230.40639509 340.99067874 -238.80517578 332.45117188 C-239.64038254 331.60542099 -240.47558929 330.7596701 -241.33610535 329.88829041 C-242.08734177 329.12267288 -242.83857819 328.35705536 -243.61257935 327.5682373 C-244.27065645 326.89939262 -244.92873356 326.23054794 -245.6067524 325.54143524 C-247 324 -247 324 -247 323 C-165.49 323 -83.98 323 0 323 C0 216.41 0 109.82 0 0 Z " fill="#FFD863" transform="translate(380,96)"/>
<path d="M0 0 C40.59 0 81.18 0 123 0 C123 106.59 123 213.18 123 323 C82.41 323 41.82 323 0 323 C0 255.02 0 187.04 0 117 C33.66 117 67.32 117 102 117 C102 86.31 102 55.62 102 24 C68.34 24 34.68 24 0 24 C0 16.08 0 8.16 0 0 Z " fill="#1A1A1A" transform="translate(256,95)"/>
<path d="M0 0 C67.32 0 134.64 0 204 0 C204 30.36 204 60.72 204 92 C136.68 92 69.36 92 0 92 C0 61.64 0 31.28 0 0 Z " fill="#00BAFF" transform="translate(154,119)"/>
<path d="M0 0 C33.66 0 67.32 0 102 0 C102 30.36 102 60.72 102 92 C68.34 92 34.68 92 0 92 C0 61.64 0 31.28 0 0 Z " fill="#34CBFF" transform="translate(154,119)"/>
<path d="M0 0 C13.53 0 27.06 0 41 0 C41 13.53 41 27.06 41 41 C27.47 41 13.94 41 0 41 C0 27.47 0 13.94 0 0 Z " fill="#96CB51" transform="translate(317,355)"/>
<path d="M0 0 C13.53 0 27.06 0 41 0 C41 13.53 41 27.06 41 41 C27.47 41 13.94 41 0 41 C0 27.47 0 13.94 0 0 Z " fill="#7F7F7F" transform="translate(262,355)"/>
<path d="M0 0 C13.53 0 27.06 0 41 0 C41 13.53 41 27.06 41 41 C27.47 41 13.94 41 0 41 C0 27.47 0 13.94 0 0 Z " fill="#989898" transform="translate(209,355)"/>
<path d="M0 0 C13.53 0 27.06 0 41 0 C41 13.53 41 27.06 41 41 C27.47 41 13.94 41 0 41 C0 27.47 0 13.94 0 0 Z " fill="#989898" transform="translate(154,355)"/>
<path d="M0 0 C13.53 0 27.06 0 41 0 C41 13.53 41 27.06 41 41 C27.47 41 13.94 41 0 41 C0 27.47 0 13.94 0 0 Z " fill="#96CB51" transform="translate(317,296)"/>
<path d="M0 0 C13.53 0 27.06 0 41 0 C41 13.53 41 27.06 41 41 C27.47 41 13.94 41 0 41 C0 27.47 0 13.94 0 0 Z " fill="#7F7F7F" transform="translate(262,296)"/>
<path d="M0 0 C13.53 0 27.06 0 41 0 C41 13.53 41 27.06 41 41 C27.47 41 13.94 41 0 41 C0 27.47 0 13.94 0 0 Z " fill="#989898" transform="translate(209,296)"/>
<path d="M0 0 C13.53 0 27.06 0 41 0 C41 13.53 41 27.06 41 41 C27.47 41 13.94 41 0 41 C0 27.47 0 13.94 0 0 Z " fill="#989898" transform="translate(154,296)"/>
<path d="M0 0 C13.53 0 27.06 0 41 0 C41 13.53 41 27.06 41 41 C27.47 41 13.94 41 0 41 C0 27.47 0 13.94 0 0 Z " fill="#7F7F7F" transform="translate(317,237)"/>
<path d="M0 0 C13.53 0 27.06 0 41 0 C41 13.53 41 27.06 41 41 C27.47 41 13.94 41 0 41 C0 27.47 0 13.94 0 0 Z " fill="#7F7F7F" transform="translate(262,237)"/>
<path d="M0 0 C13.53 0 27.06 0 41 0 C41 13.53 41 27.06 41 41 C27.47 41 13.94 41 0 41 C0 27.47 0 13.94 0 0 Z " fill="#989898" transform="translate(209,237)"/>
<path d="M0 0 C13.53 0 27.06 0 41 0 C41 13.53 41 27.06 41 41 C27.47 41 13.94 41 0 41 C0 27.47 0 13.94 0 0 Z " fill="#989898" transform="translate(154,237)"/>
</svg>
