<?xml version="1.0" encoding="UTF-8"?>
<svg version="1.1" xmlns="http://www.w3.org/2000/svg" width="512" height="512">
<path d="M0 0 C0.66 0 1.32 0 2 0 C7.67663279 7.65309136 12.74916032 15.6239959 17.5 23.875 C17.86819477 24.51380348 18.23638954 25.15260696 18.61574173 25.81076813 C36.00356926 56.49324063 35.64082456 88.39508047 34.9375 122.875 C34.89769516 124.84017704 34.89769516 124.84017704 34.85708618 126.84505463 C34.50042699 143.24900668 33.78514002 159.60492555 33 176 C48.84 176 64.68 176 81 176 C80.64035156 168.48992187 80.28070313 160.97984375 79.91015625 153.2421875 C79.53517142 143.1213772 79.2675953 133.00061736 79.0625 122.875 C79.02269516 120.92359982 79.02269516 120.92359982 78.98208618 118.9327774 C78.36315962 84.61489666 79.04945499 54.15101096 96.5 23.875 C96.87069233 23.2312014 97.24138466 22.5874028 97.62331009 21.92409515 C102.03222613 14.34859328 106.77557175 7.04344075 112 0 C112.66 0 113.32 0 114 0 C119.67663279 7.65309136 124.74916032 15.6239959 129.5 23.875 C129.86819477 24.51380348 130.23638954 25.15260696 130.61574173 25.81076813 C148.00356926 56.49324063 147.64082456 88.39508047 146.9375 122.875 C146.89769516 124.84017704 146.89769516 124.84017704 146.85708618 126.84505463 C146.50056126 143.24283121 145.87363689 159.62194437 145 176 C159.36832847 179.01746042 176.22379994 181.24249051 189.22100067 173.01904297 C201.44573574 164.22748153 211.79121726 152.8595818 222.0698401 141.93637133 C226.78622511 136.93255277 231.6165826 132.04487777 236.45499177 127.15943813 C245.07579253 118.44904905 253.60677481 109.65612535 262.08251953 100.8046875 C270.30012785 92.22323018 278.55755362 83.68343565 286.87158203 75.1953125 C287.38648163 74.66960128 287.90138124 74.14389006 288.43188386 73.60224819 C291.01608932 70.9643206 293.60115652 68.32723951 296.18673587 65.69065857 C301.20158111 60.57670621 306.21208813 55.45851174 311.22012329 50.33789062 C311.70340417 49.84377213 312.18668505 49.34965364 312.6846108 48.84056187 C319.83307213 41.52968544 326.95297071 34.19182646 334.05307007 26.83398438 C334.93617143 25.91895142 335.81927279 25.00391846 336.7291348 24.06115723 C340.87044546 19.76812325 345.00770017 15.47126419 349.13961792 11.16918945 C350.5799017 9.67331689 352.02020787 8.17746589 353.46054077 6.68164062 C354.11583216 5.99683372 354.77112355 5.31202682 355.44627225 4.6064682 C356.94477431 3.05203333 358.46937213 1.52281139 360 0 C360.33 0 360.66 0 361 0 C361 153.12 361 306.24 361 464 C207.88 464 54.76 464 -103 464 C-96.28752859 456.16878335 -96.28752859 456.16878335 -92.61995411 453.30025768 C-65.04978318 431.52347285 -65.04978318 431.52347285 -51.91167349 400.25222498 C-50.82719096 388.71647947 -51.23389208 377.15032101 -51.77264571 365.59674668 C-52.02057348 359.28059725 -52.02380558 352.96374719 -52.05525208 346.64347839 C-52.13870713 336.08020067 -52.36075422 325.52801586 -52.69946289 314.9699707 C-53.0465616 304.13618962 -53.31550884 293.30526305 -53.47680664 282.46704102 C-53.48685292 281.79419611 -53.4968992 281.12135121 -53.50724991 280.42811707 C-53.57676167 275.71319344 -53.64143417 270.99820907 -53.70507812 266.28320312 C-53.7762383 261.05764914 -53.84871628 255.8321178 -53.92341614 250.60661316 C-53.95038723 248.70977997 -53.95038723 248.70977997 -53.97790319 246.77462691 C-54.10903723 238.07944245 -54.31625853 229.38811614 -54.55400085 220.69526672 C-54.64026678 217.26385904 -54.72487807 213.83241514 -54.80880356 210.40094948 C-54.86580213 208.25368278 -54.93016661 206.10659717 -55.00240898 203.95978928 C-55.10081353 201.03246794 -55.17454916 198.10547162 -55.24308777 195.17732239 C-55.27881509 194.32784824 -55.31454242 193.47837409 -55.35135239 192.6031583 C-55.44607047 187.21018361 -54.5603084 184.29734018 -51 180 C-47.95043998 176.95043998 -45.89213208 176.04143818 -41.58349609 175.84130859 C-40.32617676 175.86016113 -39.06885742 175.87901367 -37.7734375 175.8984375 C-36.50677246 175.91310059 -35.24010742 175.92776367 -33.93505859 175.94287109 C-32.96648926 175.96172363 -31.99791992 175.98057617 -31 176 C-31.06883896 174.70947723 -31.13767792 173.41895447 -31.20860291 172.08932495 C-32.05496273 155.69144173 -32.60498768 139.29123414 -32.9375 122.875 C-32.96403656 121.57406654 -32.99057312 120.27313309 -33.01791382 118.9327774 C-33.63684038 84.61489666 -32.95054501 54.15101096 -15.5 23.875 C-15.12930767 23.2312014 -14.75861534 22.5874028 -14.37668991 21.92409515 C-9.96777387 14.34859328 -5.22442825 7.04344075 0 0 Z M285.99609375 186.94140625 C284.30837115 188.67035566 282.62086632 190.39951767 280.93359375 192.12890625 C278.11556903 194.95090702 275.11712138 197.54012866 272.10375977 200.15014648 C268.56748507 203.25962233 265.16499887 206.50863177 261.75 209.75 C255.88579381 215.2934378 249.98487201 220.7877743 244.0234375 226.2265625 C240.49048063 229.45743622 236.99612198 232.72937744 233.5 236 C228.06998895 241.07906865 222.60734917 246.11876241 217.1171875 251.1328125 C214.77499221 253.27944289 212.45100648 255.44466305 210.1328125 257.6171875 C209.46765625 258.24044922 208.8025 258.86371094 208.1171875 259.50585938 C206.82672915 260.71661294 205.53758085 261.92876493 204.25 263.14257812 C203.65445312 263.70138672 203.05890625 264.26019531 202.4453125 264.8359375 C201.92469238 265.32626465 201.40407227 265.8165918 200.86767578 266.32177734 C199 268 199 268 195.92584229 269.93257141 C193.88017477 271.65243055 193.09577869 272.60927888 192.45384789 275.22798157 C192.2600476 278.08708751 192.25824985 280.89188178 192.31884766 283.75708008 C192.3179715 284.84045654 192.31709534 285.92383301 192.31619263 287.04003906 C192.32036933 290.61727252 192.36702961 294.19262579 192.4140625 297.76953125 C192.42525423 300.25102209 192.43379452 302.7325262 192.43978882 305.21403503 C192.46268835 311.74263161 192.52162341 318.27042617 192.5880127 324.79870605 C192.66402041 332.63292539 192.68773584 340.46757189 192.72273254 348.30205536 C192.78089974 360.20192788 192.89586813 372.100041 193 384 C224.68 384 256.36 384 289 384 C289 318.33 289 252.66 289 185 C287.65468518 184.88403037 287.65468518 184.88403037 285.99609375 186.94140625 Z " fill="#365E7C" transform="translate(127,24)"/>
<path d="M0 0 C0 153.12 0 306.24 0 464 C-153.12 464 -306.24 464 -464 464 C-457.25 456.125 -457.25 456.125 -453.55517578 452.44165039 C-452.73477814 451.62132828 -451.91438049 450.80100616 -451.06912231 449.95582581 C-450.20326508 449.09512985 -449.33740784 448.2344339 -448.4453125 447.34765625 C-447.54376434 446.44752304 -446.64221619 445.54738983 -445.71334839 444.61997986 C-443.33801783 442.24927177 -440.96054595 439.88075485 -438.58197021 437.51330566 C-436.14655283 435.08819272 -433.71403088 432.66017915 -431.28125 430.23242188 C-426.52347231 425.48562872 -421.7628462 420.74170719 -417 416 C-415.82801759 418.31404186 -414.72802986 420.62164603 -413.6875 423 C-411.52413023 426.8459907 -408.92817646 429.03591177 -405 431 C-402.08058925 431.10475915 -399.18467235 431.14779346 -396.26472473 431.14717102 C-394.89137098 431.15268605 -394.89137098 431.15268605 -393.4902727 431.1583125 C-390.40342167 431.16937973 -387.31660426 431.17319833 -384.22973633 431.17700195 C-382.02407727 431.18326434 -379.81841928 431.18991093 -377.61276245 431.19691467 C-371.60640776 431.214346 -365.60006103 431.22488236 -359.5936873 431.2331202 C-355.84307799 431.23826609 -352.09247118 431.24434203 -348.34186363 431.25063133 C-337.95769612 431.26750461 -327.57353019 431.28213913 -317.18935108 431.28938007 C-314.4939912 431.29128998 -311.79863133 431.29321031 -309.10327148 431.29516602 C-308.43335034 431.29564976 -307.76342919 431.2961335 -307.0732074 431.2966319 C-296.22394602 431.30492996 -285.37479497 431.33026216 -274.52558175 431.36274669 C-263.38695676 431.39582579 -252.24837168 431.41349694 -241.10969371 431.41702431 C-234.85574305 431.4193774 -228.60196671 431.42837152 -222.34806252 431.45348549 C-216.46378711 431.4767326 -210.57980118 431.48101282 -204.69549179 431.47072411 C-202.53598125 431.47022781 -200.37645663 431.47657571 -198.21698952 431.49028015 C-195.2677095 431.50794918 -192.31947393 431.50091708 -189.37019348 431.48774719 C-188.51648424 431.49871644 -187.66277501 431.50968568 -186.78319579 431.52098733 C-181.03778649 431.45908812 -177.61851952 430.51313986 -173 427 C-166.059329 416.13172323 -166.059329 416.13172323 -168 384 C-136.32 384 -104.64 384 -72 384 C-72.495 285.99 -72.495 285.99 -73 186 C-76.3 189.3 -79.6 192.6 -83 196 C-87.109375 199.640625 -87.109375 199.640625 -89.05664062 201.31054688 C-92.55325555 204.35031764 -95.89007922 207.56090949 -99.25 210.75 C-105.11420619 216.2934378 -111.01512799 221.7877743 -116.9765625 227.2265625 C-120.50951937 230.45743622 -124.00387802 233.72937744 -127.5 237 C-132.92938328 242.07848146 -138.38956261 247.11947918 -143.8828125 252.12890625 C-146.2321944 254.28135692 -148.55334424 256.46174644 -150.8671875 258.65234375 C-151.53234375 259.28011719 -152.1975 259.90789062 -152.8828125 260.5546875 C-154.17535968 261.77627131 -155.46463078 263.00133443 -156.75 264.23046875 C-157.64332031 265.07351563 -157.64332031 265.07351563 -158.5546875 265.93359375 C-159.07530762 266.42915771 -159.59592773 266.92472168 -160.13232422 267.43530273 C-162.61237401 269.51303334 -165.30135047 271.21959511 -168 273 C-168.00364563 271.93590912 -168.00729126 270.87181824 -168.01104736 269.77548218 C-168.04801041 259.74075821 -168.1057975 249.70634075 -168.18390274 239.6718502 C-168.22338899 234.51315424 -168.25557191 229.35462926 -168.27099609 224.19580078 C-168.28615502 219.21594608 -168.32058721 214.23656143 -168.36830902 209.25691605 C-168.38313066 207.35839552 -168.39104146 205.4598079 -168.39188385 203.56122971 C-168.3942529 200.89887297 -168.42132698 198.23781592 -168.45410156 195.57568359 C-168.4490712 194.79309174 -168.44404083 194.01049988 -168.43885803 193.20419312 C-168.53709197 188.03672556 -169.63359668 185.12502186 -173 181 C-175.10575643 179.16699091 -175.10575643 179.16699091 -177 178 C-175.68806705 175.10328558 -174.28450305 173.03468848 -172.03927517 170.7903862 C-171.42979894 170.17631118 -170.82032271 169.56223615 -170.19237751 168.92955279 C-169.52186031 168.26417916 -168.85134311 167.59880552 -168.1605072 166.91326904 C-167.44896581 166.19931323 -166.73742441 165.48535742 -166.00432116 164.74976659 C-163.61300753 162.35280615 -161.21459666 159.96307577 -158.81616211 157.57324219 C-157.10280307 155.85881053 -155.389877 154.14394609 -153.67735291 152.42868042 C-149.50475229 148.25173023 -145.3275212 144.07944649 -141.14812296 139.90930077 C-136.28468579 135.05624443 -131.42647678 130.19796851 -126.56847102 125.33947626 C-117.9041683 116.67467294 -109.23504356 108.01471012 -100.56323242 99.35742188 C-92.14065423 90.94894196 -83.72159728 82.53695704 -75.30639648 74.12109375 C-74.7877501 73.60240741 -74.26910372 73.08372108 -73.73474079 72.54931697 C-73.2170067 72.03154254 -72.69927262 71.5137681 -72.16584963 70.98030353 C-62.59374945 61.40751439 -53.01836691 51.83801455 -43.44144363 42.27005075 C-40.0497702 38.88139905 -36.65907904 35.49176634 -33.26869011 32.10182953 C-28.71173287 27.5456237 -24.15199692 22.99221038 -19.59037209 18.44067764 C-17.91124734 16.76448666 -16.23298106 15.08743523 -14.55561066 13.40948868 C-12.27687907 11.13027038 -9.99512262 8.85412601 -7.71250916 6.57879639 C-6.70338727 5.5673516 -6.70338727 5.5673516 -5.67387909 4.53547359 C-1.11417866 0 -1.11417866 0 0 0 Z " fill="#F9DF58" transform="translate(488,24)"/>
<path d="M0 0 C60.72 0 121.44 0 184 0 C184 18.48 184 36.96 184 56 C123.28 56 62.56 56 0 56 C0 37.52 0 19.04 0 0 Z " fill="#2488FF" transform="translate(104,232)"/>
<path d="M0 0 C0.66 0 1.32 0 2 0 C7.67663279 7.65309136 12.74916032 15.6239959 17.5 23.875 C17.86819477 24.51380348 18.23638954 25.15260696 18.61574173 25.81076813 C36.00356926 56.49324063 35.64082456 88.39508047 34.9375 122.875 C34.91096344 124.18511803 34.88442688 125.49523605 34.85708618 126.84505463 C34.50042699 143.24900668 33.78514002 159.60492555 33 176 C11.88 176 -9.24 176 -31 176 C-31.84858804 158.28002176 -32.57837266 140.60522604 -32.9375 122.875 C-32.96403656 121.57406654 -32.99057312 120.27313309 -33.01791382 118.9327774 C-33.63684038 84.61489666 -32.95054501 54.15101096 -15.5 23.875 C-15.12930767 23.2312014 -14.75861534 22.5874028 -14.37668991 21.92409515 C-9.96777387 14.34859328 -5.22442825 7.04344075 0 0 Z " fill="#DD5528" transform="translate(127,24)"/>
<path d="M0 0 C0.66 0 1.32 0 2 0 C7.67663279 7.65309136 12.74916032 15.6239959 17.5 23.875 C17.86819477 24.51380348 18.23638954 25.15260696 18.61574173 25.81076813 C36.00356926 56.49324063 35.64082456 88.39508047 34.9375 122.875 C34.91096344 124.18511803 34.88442688 125.49523605 34.85708618 126.84505463 C34.50042699 143.24900668 33.78514002 159.60492555 33 176 C11.88 176 -9.24 176 -31 176 C-31.84858804 158.28002176 -32.57837266 140.60522604 -32.9375 122.875 C-32.96403656 121.57406654 -32.99057312 120.27313309 -33.01791382 118.9327774 C-33.63684038 84.61489666 -32.95054501 54.15101096 -15.5 23.875 C-15.12930767 23.2312014 -14.75861534 22.5874028 -14.37668991 21.92409515 C-9.96777387 14.34859328 -5.22442825 7.04344075 0 0 Z " fill="#7E543B" transform="translate(239,24)"/>
<path d="M0 0 C13.2 0 26.4 0 40 0 C40 34.32 40 68.64 40 104 C26.8 104 13.6 104 0 104 C0 69.68 0 35.36 0 0 Z " fill="#EB9A43" transform="translate(248,320)"/>
<path d="M0 0 C0.66 0 1.32 0 2 0 C6.07328348 8.00762089 10.13361507 16.02163518 14.17750645 24.04413986 C16.05560513 27.76900896 17.93810832 31.49151157 19.83081055 35.20898438 C21.65679519 38.79581999 23.47103288 42.388371 25.27723503 45.9852066 C25.96880871 47.35725731 26.66460776 48.72718656 27.36465645 50.09493256 C28.34360975 52.00936114 29.30734108 53.93074526 30.26782227 55.85449219 C30.82075455 56.94703308 31.37368683 58.03957397 31.94337463 59.16522217 C33.0397434 62.10662598 33.24254942 63.17360518 32 66 C30.60131836 67.73925781 30.60131836 67.73925781 28.83984375 69.453125 C28.21142578 70.071875 27.58300781 70.690625 26.93554688 71.328125 C26.27619141 71.96234375 25.61683594 72.5965625 24.9375 73.25 C23.94266602 74.22453125 23.94266602 74.22453125 22.92773438 75.21875 C21.29170683 76.8194676 19.64909088 78.41276193 18 80 C14.03206827 78.77732336 10.60025222 77.30399005 7 75.25 C3.19912539 73.2888645 3.19912539 73.2888645 -1 73.375 C-2.816697 74.35904421 -4.63216512 75.34536817 -6.4453125 76.3359375 C-7.77175781 77.03589844 -7.77175781 77.03589844 -9.125 77.75 C-9.95257813 78.21921875 -10.78015625 78.6884375 -11.6328125 79.171875 C-14 80 -14 80 -15.94360352 79.23071289 C-19.35187516 77.19092928 -21.99179548 74.4589883 -24.8125 71.6875 C-25.42287109 71.11837891 -26.03324219 70.54925781 -26.66210938 69.96289062 C-27.5196582 69.12081055 -27.5196582 69.12081055 -28.39453125 68.26171875 C-28.91893799 67.75600342 -29.44334473 67.25028809 -29.98364258 66.72924805 C-31 65 -31 65 -30.74273682 62.77163696 C-29.88540401 59.5723674 -28.62185799 56.8844458 -27.13256836 53.92456055 C-26.83981522 53.33861618 -26.54706207 52.75267181 -26.24543762 52.14897156 C-25.28257155 50.2253187 -24.31129146 48.30605011 -23.33984375 46.38671875 C-22.66814145 45.04891313 -21.99697078 43.71084047 -21.3263092 42.37251282 C-19.56432889 38.85997702 -17.7951696 35.35110572 -16.0244751 31.84295654 C-14.21703292 28.25882378 -12.41642542 24.67126149 -10.61523438 21.08398438 C-7.08349143 14.052621 -3.5441546 7.0251154 0 0 Z " fill="#FDDBCC" transform="translate(239,24)"/>
<path d="M0 0 C0.66 0 1.32 0 2 0 C6.065764 7.89905706 10.10936652 15.80895801 14.12569427 23.73326683 C15.99165687 27.413171 17.86481598 31.08900898 19.75537109 34.75634766 C21.58216974 38.3006909 23.38881592 41.85466243 25.18235779 45.41594315 C25.8674537 46.76776464 26.55954123 48.11606788 27.25892639 49.46055222 C28.24322681 51.35575055 29.20110285 53.26234829 30.15429688 55.17333984 C30.98036438 56.79216568 30.98036438 56.79216568 31.82312012 58.44369507 C33 62 33 62 33 72 C11.88 72 -9.24 72 -31 72 C-31 60.75 -31 60.75 -28.15429688 55.17333984 C-27.85193619 54.5671582 -27.5495755 53.96097656 -27.23805237 53.33642578 C-26.25030821 51.36781318 -25.23516643 49.41487653 -24.21875 47.4609375 C-23.52197004 46.08606121 -22.82697046 44.71028132 -22.13366699 43.33364868 C-20.31658637 39.73741225 -18.47580082 36.15385244 -16.62957764 32.57250977 C-14.74491469 28.90603737 -12.88324547 25.2279331 -11.01953125 21.55078125 C-7.36859035 14.35569395 -3.6924902 7.17385239 0 0 Z " fill="#E0EBFC" transform="translate(127,24)"/>
<path d="M0 0 C13.2 0 26.4 0 40 0 C40 13.2 40 26.4 40 40 C26.8 40 13.6 40 0 40 C0 26.8 0 13.6 0 0 Z " fill="#EB9A43" transform="translate(176,384)"/>
<path d="M0 0 C13.2 0 26.4 0 40 0 C40 13.2 40 26.4 40 40 C26.8 40 13.6 40 0 40 C0 26.8 0 13.6 0 0 Z " fill="#EB9A43" transform="translate(104,384)"/>
<path d="M0 0 C13.2 0 26.4 0 40 0 C40 13.2 40 26.4 40 40 C26.8 40 13.6 40 0 40 C0 26.8 0 13.6 0 0 Z " fill="#EB9A43" transform="translate(176,320)"/>
<path d="M0 0 C13.2 0 26.4 0 40 0 C40 13.2 40 26.4 40 40 C26.8 40 13.6 40 0 40 C0 26.8 0 13.6 0 0 Z " fill="#EB9A43" transform="translate(104,320)"/>
<path d="M0 0 C0.66 0 1.32 0 2 0 C5.28113124 6.51169004 8.55607238 13.02646507 11.82666016 19.54345703 C12.9407841 21.76162677 14.05634076 23.97907748 15.17333984 26.19580078 C16.77555541 29.37606362 18.37265674 32.55884857 19.96875 35.7421875 C20.47184692 36.73805878 20.97494385 37.73393005 21.49328613 38.75997925 C21.95376343 39.68078278 22.41424072 40.6015863 22.88867188 41.55029297 C23.2972644 42.3630368 23.70585693 43.17578064 24.12683105 44.01315308 C25 46 25 46 25 48 C9.16 48 -6.68 48 -23 48 C-21.71924773 44.15774318 -20.61924015 40.99005573 -18.84521484 37.46337891 C-18.42493011 36.62296051 -18.00464539 35.78254211 -17.57162476 34.91665649 C-17.12259796 34.02892548 -16.67357117 33.14119446 -16.2109375 32.2265625 C-15.74765045 31.3028183 -15.2843634 30.3790741 -14.80703735 29.42733765 C-13.33345163 26.4913182 -11.85431302 23.55813723 -10.375 20.625 C-9.37202754 18.62909128 -8.36941928 16.6329995 -7.3671875 14.63671875 C-4.91567304 9.75568416 -2.45959931 4.87696511 0 0 Z " fill="#365E7C" transform="translate(239,24)"/>
<path d="M0 0 C15.84 0 31.68 0 48 0 C48 5.28 48 10.56 48 16 C32.16 16 16.32 16 0 16 C0 10.72 0 5.44 0 0 Z " fill="#EF8746" transform="translate(440,360)"/>
<path d="M0 0 C15.84 0 31.68 0 48 0 C48 5.28 48 10.56 48 16 C32.16 16 16.32 16 0 16 C0 10.72 0 5.44 0 0 Z " fill="#EF8746" transform="translate(440,240)"/>
<path d="M0 0 C15.84 0 31.68 0 48 0 C48 5.28 48 10.56 48 16 C32.16 16 16.32 16 0 16 C0 10.72 0 5.44 0 0 Z " fill="#EF8746" transform="translate(440,120)"/>
<path d="M0 0 C10.56 0 21.12 0 32 0 C32 5.28 32 10.56 32 16 C21.44 16 10.88 16 0 16 C0 10.72 0 5.44 0 0 Z " fill="#EF8746" transform="translate(456,440)"/>
<path d="M0 0 C10.56 0 21.12 0 32 0 C32 5.28 32 10.56 32 16 C21.44 16 10.88 16 0 16 C0 10.72 0 5.44 0 0 Z " fill="#EF8746" transform="translate(456,400)"/>
<path d="M0 0 C10.56 0 21.12 0 32 0 C32 5.28 32 10.56 32 16 C21.44 16 10.88 16 0 16 C0 10.72 0 5.44 0 0 Z " fill="#EF8746" transform="translate(456,320)"/>
<path d="M0 0 C10.56 0 21.12 0 32 0 C32 5.28 32 10.56 32 16 C21.44 16 10.88 16 0 16 C0 10.72 0 5.44 0 0 Z " fill="#EF8746" transform="translate(456,280)"/>
<path d="M0 0 C10.56 0 21.12 0 32 0 C32 5.28 32 10.56 32 16 C21.44 16 10.88 16 0 16 C0 10.72 0 5.44 0 0 Z " fill="#EF8746" transform="translate(456,200)"/>
<path d="M0 0 C10.56 0 21.12 0 32 0 C32 5.28 32 10.56 32 16 C21.44 16 10.88 16 0 16 C0 10.72 0 5.44 0 0 Z " fill="#EF8746" transform="translate(456,160)"/>
<path d="M0 0 C10.56 0 21.12 0 32 0 C32 5.28 32 10.56 32 16 C21.44 16 10.88 16 0 16 C0 10.72 0 5.44 0 0 Z " fill="#EF8746" transform="translate(456,80)"/>
<path d="M0 0 C5.28 0 10.56 0 16 0 C16 5.28 16 10.56 16 16 C10.72 16 5.44 16 0 16 C0 10.72 0 5.44 0 0 Z " fill="#FFFFFF" transform="translate(248,256)"/>
<path d="M0 0 C5.28 0 10.56 0 16 0 C16 5.28 16 10.56 16 16 C10.72 16 5.44 16 0 16 C0 10.72 0 5.44 0 0 Z " fill="#FFFFFF" transform="translate(216,256)"/>
</svg>
